# xmcd
#
# Track frame offsets:
#	150
#	24219
#	43637
#	60281
#	77903
#	100140
#	116384
#	133694
#	158106
#	174121
#	192101
#	213751
#
# Disc length: 3107 seconds
#
# Revision: 1
# Processed by: cddbd v1.4PL0 Copyright (c) Steve Scherf et al.
# Submitted via: audiograbber 1.80
#
DISCID=880c210c
DTITLE=Keith Urban - Golden Road
DYEAR=1900
DGENRE=
TTITLE0=Somebody like you
TTITLE1=Who wouldn't wanna be me
TTITLE2=Whenever I run
TTITLE3=What about me
TTITLE4=You'll think of me
TTITLE5=Jeans on
TTITLE6=You look good in my shirt
TTITLE7=You won
TTITLE8=You're not alone tonight
TTITLE9=Song for Dad
TTITLE10=Raining on Sunday
TTITLE11=You're not my God
EXTD=
EXTT0=
EXTT1=
EXTT2=
EXTT3=
EXTT4=
EXTT5=
EXTT6=
EXTT7=
EXTT8=
EXTT9=
EXTT10=
EXTT11=
PLAYORDER=
